<?xml version="1.0" encoding="utf-8"?>
<!-- Generator: Adobe Illustrator 16.0.0, SVG Export Plug-In . SVG Version: 6.00 Build 0)  -->
<!DOCTYPE svg PUBLIC "-//W3C//DTD SVG 1.1//EN" "http://www.w3.org/Graphics/SVG/1.1/DTD/svg11.dtd">
<svg version="1.1" id="Capa_1" xmlns="http://www.w3.org/2000/svg" xmlns:xlink="http://www.w3.org/1999/xlink" x="0px" y="0px"
	 width="800px" height="400px" viewBox="0 0 800 400" enable-background="new 0 0 800 400" xml:space="preserve">
<g>
	<path stroke="#000000" stroke-miterlimit="10" d="M379.471,145.581c0,64.58-0.877,55.551-44.627,48.366
		c-16.299-2.678-41.017-1.728-54.041,0.598c-44.334,7.917-44.274,15.616-44.274-49.319l0,0c0-64.935,0-64.935,71.472-64.935l0,0
		C379.471,80.291,379.471,80.291,379.471,145.581L379.471,145.581z"/>
	<path stroke="#000000" stroke-miterlimit="10" d="M563.471,145.581c0,64.58-0.877,55.551-44.627,48.366
		c-16.299-2.678-41.016-1.728-54.041,0.598c-44.334,7.917-44.273,15.616-44.273-49.319l0,0c0-64.935,0-64.935,71.471-64.935l0,0
		C563.471,80.291,563.471,80.291,563.471,145.581L563.471,145.581z"/>
</g>
</svg>
