<?xml version="1.0" encoding="utf-8"?>
<!-- Generator: Adobe Illustrator 16.0.0, SVG Export Plug-In . SVG Version: 6.00 Build 0)  -->
<!DOCTYPE svg PUBLIC "-//W3C//DTD SVG 1.1//EN" "http://www.w3.org/Graphics/SVG/1.1/DTD/svg11.dtd">
<svg version="1.1" id="Capa_1" xmlns="http://www.w3.org/2000/svg" xmlns:xlink="http://www.w3.org/1999/xlink" x="0px" y="0px"
	 width="800px" height="480px" viewBox="0 0 800 480" enable-background="new 0 0 800 480" xml:space="preserve">
<path fill-rule="evenodd" clip-rule="evenodd" d="M372.814,153.964c1.974,0.25,2.672,1.045,3.246,1.909
	c0.93,1.402,1.906,2.789,3.817,3.959c2.808,1.72,6.734,2.334,10.778,2.82c6.49,0.78,12.843,0.433,19.06-0.704
	c4.33-0.792,7.145-2.359,8.759-4.505c0.487-0.648,0.964-1.299,1.386-1.957c0.461-0.722,1.332-1.236,2.726-1.522
	c0.121,0,0.241,0,0.361,0c2.223,0.116,3.088,0.832,3.431,1.863c0.258,4.44-2.695,7.478-9.823,9.845
	c-10.139,2.512-27.516,3.521-37.149,0.086c-6.384-2.276-8.304-3.906-10.011-8.141c0-0.295-0.001-0.591,0-0.886
	c0.005-0.388,0.084-0.773,0.128-1.159c0.101-0.871,0.984-1.37,2.571-1.608C372.333,153.964,372.573,153.964,372.814,153.964z"/>
<path stroke="#000000" stroke-miterlimit="10" d="M563.002,87.631c0,56.829-0.877,18.884-44.627,12.561
	c-16.299-2.355-41.017-1.52-54.041,0.527c-44.334,6.966-44.274,43.741-44.274-13.4l0,0c0-57.141,0-57.141,71.472-57.141l0,0
	C563.002,30.178,563.002,30.178,563.002,87.631L563.002,87.631z"/>
<path stroke="#000000" stroke-miterlimit="10" d="M379.002,87.631c0,56.829-0.877,18.884-44.627,12.561
	c-16.299-2.355-41.017-1.52-54.041,0.527c-44.334,6.966-44.274,43.741-44.274-13.4l0,0c0-57.141,0-57.141,71.472-57.141l0,0
	C379.002,30.178,379.002,30.178,379.002,87.631L379.002,87.631z"/>
</svg>
