<?xml version="1.0" encoding="utf-8"?>
<!-- Generator: Adobe Illustrator 16.0.0, SVG Export Plug-In . SVG Version: 6.00 Build 0)  -->
<!DOCTYPE svg PUBLIC "-//W3C//DTD SVG 1.1//EN" "http://www.w3.org/Graphics/SVG/1.1/DTD/svg11.dtd">
<svg version="1.1" id="Capa_1" xmlns="http://www.w3.org/2000/svg" xmlns:xlink="http://www.w3.org/1999/xlink" x="0px" y="0px"
	 width="800px" height="480px" viewBox="0 0 800 480" enable-background="new 0 0 800 480" xml:space="preserve">
<path stroke="#000000" stroke-miterlimit="10" d="M512.06,220.801c0,108.201,0,108.201,71.473,108.201l0,0
	c71.471,0,71.471,0,71.471-108.797l0,0c0-108.795,0-108.795-71.471-108.795l0,0C512.06,111.41,512.06,111.41,512.06,220.801
	L512.06,220.801z"/>
<path stroke="#000000" stroke-miterlimit="10" d="M328.5,232.985c0,90.948,0,90.948,71.471,90.948l0,0
	c71.473,0,71.473,0,71.473-91.447l0,0c0-91.447,0-91.447-71.473-91.447l0,0C328.5,141.039,328.5,141.039,328.5,232.985
	L328.5,232.985z"/>
<path d="M372.659,360.34c2.75,2.675,4.231,6.011,4.231,9.648c0,3.313-2.56,5.874-4.952,6.184
	c-1.333,0.174-11.868,0.192-16.336,0.192c-8.464,0-18.416-0.063-19.735-0.154c-2.499-0.176-5.196-2.604-5.196-6.222
	c0-3.542,1.406-6.798,4.02-9.438c0.032-0.042,0.07-0.082,0.114-0.116c0.002-0.003,0.005-0.004,0.008-0.006
	c0.803-0.794,1.714-1.528,2.733-2.199c4.196-2.756,9.961-4.275,16.235-4.275c6.275,0,12.04,1.521,16.236,4.275
	c0.953,0.628,1.813,1.313,2.578,2.048C372.617,360.298,372.638,360.316,372.659,360.34z"/>
</svg>
