<?xml version="1.0" encoding="utf-8"?>
<!-- Generator: Adobe Illustrator 16.0.0, SVG Export Plug-In . SVG Version: 6.00 Build 0)  -->
<!DOCTYPE svg PUBLIC "-//W3C//DTD SVG 1.1//EN" "http://www.w3.org/Graphics/SVG/1.1/DTD/svg11.dtd">
<svg version="1.1" id="Capa_1" xmlns="http://www.w3.org/2000/svg" xmlns:xlink="http://www.w3.org/1999/xlink" x="0px" y="0px"
	 width="800px" height="400px" viewBox="0 0 800 400" enable-background="new 0 0 800 400" xml:space="preserve">
<path stroke="#000000" stroke-miterlimit="10" d="M563.442,199.729c0,4.271,0,4.271-71.472,4.271l0,0
	c-71.471,0-71.471,0-71.471-4.295l0,0c0-4.295,0-4.295,71.471-4.295l0,0C563.442,195.41,563.442,195.41,563.442,199.729
	L563.442,199.729z"/>
<path stroke="#000000" stroke-miterlimit="10" d="M379.442,199.729c0,4.271,0,4.271-71.472,4.271l0,0
	c-71.471,0-71.471,0-71.471-4.295l0,0c0-4.295,0-4.295,71.471-4.295l0,0C379.442,195.41,379.442,195.41,379.442,199.729
	L379.442,199.729z"/>
</svg>
