<?xml version="1.0" encoding="utf-8"?>
<!-- Generator: Adobe Illustrator 16.0.0, SVG Export Plug-In . SVG Version: 6.00 Build 0)  -->
<!DOCTYPE svg PUBLIC "-//W3C//DTD SVG 1.1//EN" "http://www.w3.org/Graphics/SVG/1.1/DTD/svg11.dtd">
<svg version="1.1" id="Capa_1" xmlns="http://www.w3.org/2000/svg" xmlns:xlink="http://www.w3.org/1999/xlink" x="0px" y="0px"
	 width="800px" height="400px" viewBox="0 0 800 400" enable-background="new 0 0 800 400" xml:space="preserve">
<g>
	<g>
		<path stroke="#000000" stroke-miterlimit="10" d="M573.942,213.238c0,91.573,0,82.618-73.939,95.348l0,0
			c-73.943,11.03-73.943,0-73.943-95.871l0,0c0-79.396,0-79.396,73.943-95.871l0,0C576.158,104.918,573.942,116.844,573.942,213.238
			L573.942,213.238z"/>
	</g>
	<g>
		<path stroke="#000000" stroke-miterlimit="10" d="M737.155,183.85c0,88.477,0,79.825-72.653,92.123l0,0
			c-72.656,10.657-72.656,0-72.656-92.628l0,0c0-76.711,0-76.711,72.656-92.629l0,0C739.332,79.193,737.155,90.716,737.155,183.85
			L737.155,183.85z"/>
	</g>
</g>
</svg>
