<?xml version="1.0" encoding="utf-8"?>
<!-- Generator: Adobe Illustrator 16.0.0, SVG Export Plug-In . SVG Version: 6.00 Build 0)  -->
<!DOCTYPE svg PUBLIC "-//W3C//DTD SVG 1.1//EN" "http://www.w3.org/Graphics/SVG/1.1/DTD/svg11.dtd">
<svg version="1.1" id="Capa_1" xmlns="http://www.w3.org/2000/svg" xmlns:xlink="http://www.w3.org/1999/xlink" x="0px" y="0px"
	 width="800px" height="400px" viewBox="0 0 800 400" enable-background="new 0 0 800 400" xml:space="preserve">
<path fill="none" stroke="#000000" stroke-miterlimit="10" d="M592,246.5"/>
<g>
	<path stroke="#000000" stroke-miterlimit="10" d="M382.142,310.134c0.089,70.356,0.089,70.356-75.272,70.864l0,0
		c-71.471,0-71.471,0-71.379-37.529c0.002-0.942-0.095-2.094,1.475-2.519c2.122-0.574,65.057-15.721,65.057-15.721l2.644-0.52
		c3.397-0.605,76.036-15.343,76.756-15.344S382.141,309.365,382.142,310.134z"/>
	<path stroke="#000000" stroke-miterlimit="10" d="M562.5,342.156c-0.027,39.164-0.027,39.164-71.498,39.164l0,0
		c-71.473,0-71.474,0-71.504-71.278c0-0.813-0.239-0.926,0.308-0.819L490.642,324l0,0c0,0,71.858,17.547,71.368,17.381
		C562.01,341.381,562.5,341.547,562.5,342.156z"/>
	<path fill="none" stroke="#000000" stroke-miterlimit="10" d="M223,309.5"/>
</g>
</svg>
