<?xml version="1.0" encoding="utf-8"?>
<!-- Generator: Adobe Illustrator 16.0.0, SVG Export Plug-In . SVG Version: 6.00 Build 0)  -->
<!DOCTYPE svg PUBLIC "-//W3C//DTD SVG 1.1//EN" "http://www.w3.org/Graphics/SVG/1.1/DTD/svg11.dtd">
<svg version="1.1" id="Capa_1" xmlns="http://www.w3.org/2000/svg" xmlns:xlink="http://www.w3.org/1999/xlink" x="0px" y="0px"
	 width="800px" height="400px" viewBox="0 0 800 400" enable-background="new 0 0 800 400" xml:space="preserve">
<path stroke="#000000" stroke-miterlimit="10" d="M471.442,196.374c0,90.947,0,90.947-71.472,90.947l0,0
	c-71.471,0-71.471,0-71.471-91.448l0,0c0-91.447,0-91.447,71.471-91.447l0,0C471.442,104.426,471.442,104.426,471.442,196.374
	L471.442,196.374z"/>
<path stroke="#000000" stroke-miterlimit="10" d="M655.031,188.929c0,103.433,0,103.433-71.5,103.433l0,0c-71.5,0-71.5,0-71.5-104
	l0,0c0-104,0-104,71.5-104l0,0C655.031,84.361,655.031,84.361,655.031,188.929L655.031,188.929z"/>
</svg>
