<?xml version="1.0" encoding="utf-8"?>
<!-- Generator: Adobe Illustrator 16.0.0, SVG Export Plug-In . SVG Version: 6.00 Build 0)  -->
<!DOCTYPE svg PUBLIC "-//W3C//DTD SVG 1.1//EN" "http://www.w3.org/Graphics/SVG/1.1/DTD/svg11.dtd">
<svg version="1.1" id="Capa_1" xmlns="http://www.w3.org/2000/svg" xmlns:xlink="http://www.w3.org/1999/xlink" x="0px" y="0px"
	 width="800px" height="400px" viewBox="0 0 800 400" enable-background="new 0 0 800 400" xml:space="preserve">
<g>
	<path stroke="#000000" stroke-miterlimit="10" d="M381,153.5c0.231,157.296,0.231,157.296-75.131,158.498l0,0
		c-71.471,0-71.471,0-71.406-126.498c0.008-15.5-0.006-15.5,14.203-19c2.446-0.603,59.074-14.027,59.074-14.027l0,0
		c4-1.434,49.055-11.394,54.635-12.973C375.625,135.75,380.988,145.204,381,153.5z"/>
	<path stroke="#000000" stroke-miterlimit="10" d="M561.533,185.5C561,306.138,561,306.138,492.002,305.658l0,0
		c-71.473,0-71.473,0-71.504-151.742c-0.003-14.443,13.303-15.853,19.184-14.305l52.293,12.905l0,0c0,0,53.134,13.783,54.309,14.204
		C560.333,171.75,561.594,171.698,561.533,185.5z"/>
</g>
</svg>
