<?xml version="1.0" encoding="utf-8"?>
<!-- Generator: Adobe Illustrator 16.0.0, SVG Export Plug-In . SVG Version: 6.00 Build 0)  -->
<!DOCTYPE svg PUBLIC "-//W3C//DTD SVG 1.1//EN" "http://www.w3.org/Graphics/SVG/1.1/DTD/svg11.dtd">
<svg version="1.1" id="Capa_1" xmlns="http://www.w3.org/2000/svg" xmlns:xlink="http://www.w3.org/1999/xlink" x="0px" y="0px"
	 width="800px" height="400px" viewBox="0 0 800 400" enable-background="new 0 0 800 400" xml:space="preserve">
<g>
	<g>
		<path stroke="#000000" stroke-miterlimit="10" d="M202.429,184.694c-3.072,104.255-3.072,104.255-74.602,88.788l0,0
			c-77.21-18.899-74.601,0-74.601-89.277l0,0c0-102.317,0-105.324,74.601-89.276l0,0C198.313,113.678,202.429,94.93,202.429,184.694
			L202.429,184.694z"/>
	</g>
	<path stroke="#000000" stroke-miterlimit="10" d="M364.216,216.483c-3.071,104.255-3.071,104.255-74.602,88.789l0,0
		c-77.21-18.9-74.601,0-74.601-89.277l0,0c0-102.317,0-105.324,74.601-89.276l0,0C360.101,145.468,364.216,126.719,364.216,216.483
		L364.216,216.483z"/>
</g>
</svg>
