<?xml version="1.0" encoding="utf-8"?>
<!-- Generator: Adobe Illustrator 16.0.0, SVG Export Plug-In . SVG Version: 6.00 Build 0)  -->
<!DOCTYPE svg PUBLIC "-//W3C//DTD SVG 1.1//EN" "http://www.w3.org/Graphics/SVG/1.1/DTD/svg11.dtd">
<svg version="1.1" id="Capa_1" xmlns="http://www.w3.org/2000/svg" xmlns:xlink="http://www.w3.org/1999/xlink" x="0px" y="0px"
	 width="800px" height="400px" viewBox="0 0 800 400" enable-background="new 0 0 800 400" xml:space="preserve">
<g>
	<path stroke="#000000" stroke-miterlimit="10" d="M379.442,192.656c0,103.342,0,103.342-71.472,103.342l0,0
		c-71.471,0-71.471,0-71.471-103.91l0,0c0-103.91,0-103.91,71.471-103.91l0,0C379.442,88.178,379.442,88.178,379.442,192.656
		L379.442,192.656z"/>
	<path stroke="#000000" stroke-miterlimit="10" d="M563.002,192.978c0,103.343,0,103.343-71.471,103.343l0,0
		c-71.472,0-71.472,0-71.472-103.91l0,0c0-103.91,0-103.91,71.472-103.91l0,0C563.002,88.5,563.002,88.5,563.002,192.978
		L563.002,192.978z"/>
</g>
</svg>
