<?xml version="1.0" encoding="utf-8"?>
<!-- Generator: Adobe Illustrator 16.0.0, SVG Export Plug-In . SVG Version: 6.00 Build 0)  -->
<!DOCTYPE svg PUBLIC "-//W3C//DTD SVG 1.1//EN" "http://www.w3.org/Graphics/SVG/1.1/DTD/svg11.dtd">
<svg version="1.1" id="Capa_1" xmlns="http://www.w3.org/2000/svg" xmlns:xlink="http://www.w3.org/1999/xlink" x="0px" y="0px"
	 width="800px" height="400px" viewBox="0 0 800 400" enable-background="new 0 0 800 400" xml:space="preserve">
<path stroke="#000000" stroke-miterlimit="10" d="M379.292,295.271c-0.146,0.625,0.18,8.931-71.292,8.931l0,0
	c-71.471,0-71.125-3.617-71.5-10.658V293.5c1-8,0,0,71,0h0.354c72,0,71.646-11,71.646,0
	C379.5,293.5,379.438,294.646,379.292,295.271z"/>
<path stroke="#000000" stroke-miterlimit="10" d="M563.291,295.271c-0.146,0.625,0.18,8.931-71.291,8.931l0,0
	c-71.471,0-71.125-3.617-71.5-10.658V293.5c1-8,0,0,71,0h0.354c72,0,71.646-11,71.646,0
	C563.5,293.5,563.438,294.646,563.291,295.271z"/>
</svg>
