<?xml version="1.0" encoding="utf-8"?>
<!-- Generator: Adobe Illustrator 16.0.0, SVG Export Plug-In . SVG Version: 6.00 Build 0)  -->
<!DOCTYPE svg PUBLIC "-//W3C//DTD SVG 1.1//EN" "http://www.w3.org/Graphics/SVG/1.1/DTD/svg11.dtd">
<svg version="1.1" id="Capa_1" xmlns="http://www.w3.org/2000/svg" xmlns:xlink="http://www.w3.org/1999/xlink" x="0px" y="0px"
	 width="800px" height="400px" viewBox="0 0 800 400" enable-background="new 0 0 800 400" xml:space="preserve">
<g>
	<path stroke="#000000" stroke-miterlimit="10" d="M379.002,186.071c0,88.916-0.877,76.486-44.627,66.591
		c-16.299-3.686-41.017-2.378-54.041,0.824c-44.334,10.899-44.274,21.5-44.274-67.904l0,0c0-89.404,0-89.404,71.472-89.404l0,0
		C379.002,96.178,379.002,96.178,379.002,186.071L379.002,186.071z"/>
	<path stroke="#000000" stroke-miterlimit="10" d="M563.002,186.071c0,88.916-0.877,76.486-44.627,66.591
		c-16.299-3.686-41.017-2.378-54.041,0.824c-44.334,10.899-44.274,21.5-44.274-67.904l0,0c0-89.404,0-89.404,71.472-89.404l0,0
		C563.002,96.178,563.002,96.178,563.002,186.071L563.002,186.071z"/>
</g>
</svg>
