<?xml version="1.0" encoding="utf-8"?>
<!-- Generator: Adobe Illustrator 16.0.0, SVG Export Plug-In . SVG Version: 6.00 Build 0)  -->
<!DOCTYPE svg PUBLIC "-//W3C//DTD SVG 1.1//EN" "http://www.w3.org/Graphics/SVG/1.1/DTD/svg11.dtd">
<svg version="1.1" id="Capa_1" xmlns="http://www.w3.org/2000/svg" xmlns:xlink="http://www.w3.org/1999/xlink" x="0px" y="0px"
	 width="800px" height="400px" viewBox="0 0 800 400" enable-background="new 0 0 800 400" xml:space="preserve">
<g>
	<path stroke="#000000" stroke-miterlimit="10" d="M362.18,95.236c-7.75-6.375-8.875-7.375-21.583-15.074
		c-14.814-8.975-42.625-9.167-61.667,0.137c-16.5,8.063-14,5.938-26.086,14.771c-10.923,7.983-15.339,1.555-15.017-6.968
		s18.74-25.006,41.088-34.27s39.14-8.347,55.64-2.222s46.208,22.125,46.625,38.625C381.597,106.736,369.095,100.923,362.18,95.236z"
		/>
	<path stroke="#000000" stroke-miterlimit="10" d="M543.18,97.236c-7.75-6.375-8.875-7.375-21.583-15.074
		c-14.813-8.975-42.625-9.167-61.667,0.137c-16.5,8.063-14,5.938-26.086,14.771c-10.924,7.983-15.339,1.555-15.018-6.968
		c0.322-8.522,18.74-25.006,41.089-34.27s39.14-8.347,55.64-2.222s46.208,22.125,46.625,38.625
		C562.597,108.736,550.095,102.923,543.18,97.236z"/>
</g>
</svg>
