<?xml version="1.0" encoding="utf-8"?>
<!-- Generator: Adobe Illustrator 16.0.0, SVG Export Plug-In . SVG Version: 6.00 Build 0)  -->
<!DOCTYPE svg PUBLIC "-//W3C//DTD SVG 1.1//EN" "http://www.w3.org/Graphics/SVG/1.1/DTD/svg11.dtd">
<svg version="1.1" id="Capa_1" xmlns="http://www.w3.org/2000/svg" xmlns:xlink="http://www.w3.org/1999/xlink" x="0px" y="0px"
	 width="800px" height="400px" viewBox="0 0 800 400" enable-background="new 0 0 800 400" xml:space="preserve">
<path stroke="#000000" stroke-miterlimit="10" d="M287.471,208.337c0,103.432,0,103.432-71.5,103.432l0,0
	c-71.5,0-71.5,0-71.5-104.001l0,0c0-104,0-104,71.5-104l0,0C287.471,103.768,287.471,103.768,287.471,208.337L287.471,208.337z"/>
<path stroke="#000000" stroke-miterlimit="10" d="M471.002,213.372c0,90.948,0,90.948-71.471,90.948l0,0
	c-71.472,0-71.472,0-71.472-91.447l0,0c0-91.447,0-91.447,71.472-91.447l0,0C471.002,121.426,471.002,121.426,471.002,213.372
	L471.002,213.372z"/>
</svg>
