<?xml version="1.0" encoding="utf-8"?>
<!-- Generator: Adobe Illustrator 16.0.0, SVG Export Plug-In . SVG Version: 6.00 Build 0)  -->
<!DOCTYPE svg PUBLIC "-//W3C//DTD SVG 1.1//EN" "http://www.w3.org/Graphics/SVG/1.1/DTD/svg11.dtd">
<svg version="1.1" id="Capa_1" xmlns="http://www.w3.org/2000/svg" xmlns:xlink="http://www.w3.org/1999/xlink" x="0px" y="0px"
	 width="800px" height="480px" viewBox="0 0 800 480" enable-background="new 0 0 800 480" xml:space="preserve">
<path d="M374.921,397c1.974-0.25,2.672-1.045,3.246-1.909c0.93-1.4,1.906-2.789,3.817-3.96c2.808-1.719,6.734-2.333,10.778-2.817
	c6.489-0.78,12.843-0.436,19.062,0.702c4.33,0.792,7.145,2.359,8.759,4.507c0.487,0.646,0.964,1.299,1.386,1.954
	c0.461,0.725,1.332,1.237,2.728,1.523c0.121,0,0.239,0,0.359,0c2.225-0.116,3.088-0.832,3.433-1.863
	c0.258-4.438-2.695-7.478-9.823-9.845c-10.139-2.512-27.516-3.521-37.15-0.086c-6.384,2.276-8.304,3.906-10.011,8.141
	c0,0.295,0,0.593,0,0.888c0.005,0.388,0.084,0.771,0.129,1.157c0.101,0.87,0.984,1.37,2.571,1.608
	C374.44,397,374.68,397,374.921,397z"/>
<path stroke="#000000" stroke-miterlimit="10" d="M379,306c0.584,58.32-17.5,58.32-71.25,57.998l0,0
	c-47.25,0.043-71.69,0.043-71.469-45.498l0,0c-0.336-11.002-0.336-11.002,27.679-18.547l64.743-18.027
	C378.751,268.831,378.751,268.831,379,306L379,306z"/>
<path stroke="#000000" stroke-miterlimit="10" d="M563.002,318.5c0,28.5-11.752,37.82-71.501,37.82l0,0
	c-48.001,0-71.441,0-71.441-51.32l0,0c-0.06-34.833-0.06-34.833,49.989-22.074l64.937,18.027
	C563.001,309.188,563.001,309.188,563.002,318.5L563.002,318.5z"/>
</svg>
