<?xml version="1.0" encoding="utf-8"?>
<!-- Generator: Adobe Illustrator 16.0.0, SVG Export Plug-In . SVG Version: 6.00 Build 0)  -->
<!DOCTYPE svg PUBLIC "-//W3C//DTD SVG 1.1//EN" "http://www.w3.org/Graphics/SVG/1.1/DTD/svg11.dtd">
<svg version="1.1" id="Capa_1" xmlns="http://www.w3.org/2000/svg" xmlns:xlink="http://www.w3.org/1999/xlink" x="0px" y="0px"
	 width="800px" height="480px" viewBox="0 0 800 480" enable-background="new 0 0 800 480" xml:space="preserve">
<path stroke="#000000" stroke-miterlimit="10" d="M379.471,161.386c0,64.58-0.877,55.551-44.627,48.366
	c-16.299-2.678-41.017-1.728-54.041,0.598c-44.334,7.917-44.274,15.616-44.274-49.319l0,0c0-64.935,0-64.935,71.472-64.935l0,0
	C379.471,96.096,379.471,96.096,379.471,161.386L379.471,161.386z"/>
<path stroke="#000000" stroke-miterlimit="10" d="M563.471,161.386c0,64.58-0.877,55.551-44.627,48.366
	c-16.299-2.678-41.016-1.728-54.041,0.598c-44.334,7.917-44.271,15.616-44.271-49.319l0,0c0-64.935,0-64.935,71.471-64.935l0,0
	C563.471,96.096,563.471,96.096,563.471,161.386L563.471,161.386z"/>
<path d="M374.917,249.906c1.975,0.25,2.672,1.045,3.246,1.908c0.93,1.402,1.906,2.789,3.817,3.959
	c2.808,1.721,6.733,2.334,10.778,2.82c6.49,0.779,12.843,0.434,19.062-0.703c4.33-0.793,7.145-2.359,8.758-4.506
	c0.488-0.648,0.965-1.299,1.387-1.957c0.461-0.723,1.332-1.236,2.727-1.521c0.119,0,0.24,0,0.359,0
	c2.225,0.115,3.088,0.832,3.434,1.863c0.258,4.439-2.695,7.477-9.824,9.844c-10.141,2.512-27.515,3.521-37.148,0.086
	c-6.384-2.275-8.304-3.906-10.011-8.141c0-0.295-0.002-0.592,0-0.887c0.004-0.389,0.084-0.771,0.127-1.158
	c0.102-0.871,0.984-1.369,2.572-1.607C374.438,249.906,374.677,249.906,374.917,249.906z"/>
</svg>
