<?xml version="1.0" encoding="utf-8"?>
<!-- Generator: Adobe Illustrator 16.0.0, SVG Export Plug-In . SVG Version: 6.00 Build 0)  -->
<!DOCTYPE svg PUBLIC "-//W3C//DTD SVG 1.1//EN" "http://www.w3.org/Graphics/SVG/1.1/DTD/svg11.dtd">
<svg version="1.1" id="Capa_1" xmlns="http://www.w3.org/2000/svg" xmlns:xlink="http://www.w3.org/1999/xlink" x="0px" y="0px"
	 width="800px" height="480px" viewBox="0 0 800 480" enable-background="new 0 0 800 480" xml:space="preserve">
<path stroke="#000000" stroke-miterlimit="10" d="M386.442,264.656c0,103.342,0,103.342-71.472,103.342l0,0
	c-71.471,0-71.471,0-71.471-103.91l0,0c-0.5-29.59-0.5-29.59,27.515-37.135l64.937-18.027C386,195.831,386,195.831,386.442,264.656
	L386.442,264.656z"/>
<path d="M374.921,397c1.974-0.25,2.672-1.045,3.246-1.909c0.93-1.401,1.906-2.789,3.817-3.959c2.808-1.72,6.734-2.334,10.778-2.82
	c6.49-0.779,12.843-0.433,19.061,0.704c4.33,0.792,7.145,2.359,8.759,4.506c0.487,0.647,0.964,1.299,1.386,1.956
	c0.461,0.723,1.332,1.236,2.727,1.522c0.121,0,0.24,0,0.36,0c2.224-0.116,3.088-0.832,3.432-1.863
	c0.258-4.439-2.695-7.478-9.823-9.845c-10.139-2.512-27.516-3.521-37.149-0.086c-6.384,2.276-8.304,3.906-10.011,8.141
	c0,0.295-0.001,0.591,0,0.887c0.005,0.388,0.084,0.772,0.128,1.158c0.101,0.871,0.984,1.37,2.571,1.608
	C374.44,397,374.68,397,374.921,397z"/>
<path stroke="#000000" stroke-miterlimit="10" d="M566,269c0,103.343-0.027,94.32-71.498,94.32l0,0
	c-71.473,0-71.473,0-71.502-88.526V259.41c0-67.243,0-67.243,50.049-54.485l64.938,18.027
	c28.016,10.881,28.016,10.881,28.016,37.025L566,269z"/>
</svg>
