<?xml version="1.0" encoding="utf-8"?>
<!-- Generator: Adobe Illustrator 16.0.0, SVG Export Plug-In . SVG Version: 6.00 Build 0)  -->
<!DOCTYPE svg PUBLIC "-//W3C//DTD SVG 1.1//EN" "http://www.w3.org/Graphics/SVG/1.1/DTD/svg11.dtd">
<svg version="1.1" id="Capa_1" xmlns="http://www.w3.org/2000/svg" xmlns:xlink="http://www.w3.org/1999/xlink" x="0px" y="0px"
	 width="800px" height="460px" viewBox="0 0 800 460" enable-background="new 0 0 800 460" xml:space="preserve">
	<path d="M379.441,181.656c0,103.342,0,103.342-71.472,103.342l0,0c-71.471,0-71.471,0-71.471-103.91l0,0
		c0-103.91,0-103.91,71.471-103.91l0,0C379.441,77.178,379.441,77.178,379.441,181.656L379.441,181.656z"/>
	<path d="M563.002,181.656c0,103.342,0,103.342-71.471,103.342l0,0c-71.474,0-71.474,0-71.474-103.909l0,0
		c0-103.91,0-103.91,71.474-103.91l0,0C563.002,77.178,563.002,77.178,563.002,181.656L563.002,181.656z"/>
	<path fill="#00E71F" d="M437.026,332.667c0,12.334-24.917,22.333-37.251,22.333c-12.334,0-36.278-9.666-36.278-22
		s23.943-22.666,36.278-22.666C412.109,310.334,437.026,320.333,437.026,332.667z"/>
</svg>
