<?xml version="1.0" encoding="utf-8"?>
<!-- Generator: Adobe Illustrator 16.0.0, SVG Export Plug-In . SVG Version: 6.00 Build 0)  -->
<!DOCTYPE svg PUBLIC "-//W3C//DTD SVG 1.1//EN" "http://www.w3.org/Graphics/SVG/1.1/DTD/svg11.dtd">
<svg version="1.1" id="Capa_1" xmlns="http://www.w3.org/2000/svg" xmlns:xlink="http://www.w3.org/1999/xlink" x="0px" y="0px"
	 width="800px" height="400px" viewBox="0 0 800 400" enable-background="new 0 0 800 400" xml:space="preserve">
<g>
	<path display="none" stroke="#000000" stroke-miterlimit="10" d="M379.442,200.656c0,103.342,0,103.342-71.472,103.342l0,0
		c-71.471,0-71.471,0-71.471-103.91l0,0c0-103.91,0-103.91,71.471-103.91l0,0C379.442,96.178,379.442,96.178,379.442,200.656
		L379.442,200.656z"/>
	<path stroke="#000000" stroke-miterlimit="10" d="M563.002,186.071c0,88.916-0.877,76.486-44.627,66.591
		c-16.299-3.686-41.017-2.378-54.041,0.824c-44.334,10.899-44.274,21.5-44.274-67.904l0,0c0-89.404,0-89.404,71.472-89.404l0,0
		C563.002,96.178,563.002,96.178,563.002,186.071L563.002,186.071z"/>
	<path stroke="#000000" stroke-miterlimit="10" d="M379.002,186.071c0,88.916-0.877,76.486-44.627,66.591
		c-16.299-3.686-41.017-2.378-54.041,0.824c-44.334,10.899-44.274,21.5-44.274-67.904l0,0c0-89.404,0-89.404,71.472-89.404l0,0
		C379.002,96.178,379.002,96.178,379.002,186.071L379.002,186.071z"/>
</g>
<path fill-rule="evenodd" clip-rule="evenodd" d="M374.92,301.932c1.975,0.25,2.672,1.045,3.246,1.91
	c0.93,1.402,1.906,2.789,3.818,3.959c2.808,1.719,6.734,2.334,10.777,2.82c6.49,0.779,12.844,0.432,19.061-0.705
	c4.33-0.791,7.145-2.359,8.758-4.504c0.488-0.648,0.965-1.299,1.387-1.957c0.461-0.723,1.332-1.236,2.725-1.523
	c0.121,0,0.242,0,0.361,0c2.223,0.117,3.088,0.832,3.432,1.863c0.258,4.441-2.695,7.479-9.824,9.846
	c-10.139,2.512-27.516,3.521-37.148,0.086c-6.385-2.277-8.305-3.906-10.012-8.141c0-0.295-0.001-0.592,0-0.887
	c0.006-0.387,0.084-0.773,0.129-1.158c0.101-0.871,0.983-1.371,2.57-1.609C374.439,301.932,374.68,301.932,374.92,301.932z"/>
</svg>
