<?xml version="1.0" encoding="utf-8"?>
<!-- Generator: Adobe Illustrator 16.0.0, SVG Export Plug-In . SVG Version: 6.00 Build 0)  -->
<!DOCTYPE svg PUBLIC "-//W3C//DTD SVG 1.1//EN" "http://www.w3.org/Graphics/SVG/1.1/DTD/svg11.dtd">
<svg version="1.1" id="Capa_1" xmlns="http://www.w3.org/2000/svg" xmlns:xlink="http://www.w3.org/1999/xlink" x="0px" y="0px"
	 width="800px" height="480px" viewBox="0 0 800 480" enable-background="new 0 0 800 480" xml:space="preserve">
<path stroke="#000000" stroke-miterlimit="10" d="M512.06,220.801c0,108.201,0,108.201,71.474,108.201l0,0
	c71.471,0,71.471,0,71.471-108.797l0,0c0-108.795,0-108.795-71.471-108.795l0,0C512.06,111.41,512.06,111.41,512.06,220.801
	L512.06,220.801z"/>
<path stroke="#000000" stroke-miterlimit="10" d="M328.5,232.985c0,90.948,0,90.948,71.471,90.948l0,0
	c71.474,0,71.474,0,71.474-91.447l0,0c0-91.447,0-91.447-71.474-91.447l0,0C328.5,141.039,328.5,141.039,328.5,232.985
	L328.5,232.985z"/>
<path d="M359.417,363.726c0.821,0.801,1.262,1.793,1.262,2.881c0,0.985-0.766,1.752-1.478,1.848c-0.4,0.048-3.548,0.055-4.879,0.055
	c-2.528,0-5.501-0.021-5.892-0.048c-0.742-0.048-1.55-0.767-1.55-1.854c0-1.061,0.421-2.032,1.197-2.819
	c0.007-0.014,0.021-0.027,0.038-0.034l0,0c0.243-0.239,0.51-0.458,0.817-0.657c1.256-0.82,2.973-1.286,4.848-1.286
	c1.872,0,3.596,0.459,4.844,1.286c0.284,0.179,0.544,0.391,0.77,0.609C359.404,363.712,359.411,363.719,359.417,363.726z"/>
</svg>
