<?xml version="1.0" encoding="utf-8"?>
<!-- Generator: Adobe Illustrator 16.0.0, SVG Export Plug-In . SVG Version: 6.00 Build 0)  -->
<!DOCTYPE svg PUBLIC "-//W3C//DTD SVG 1.1//EN" "http://www.w3.org/Graphics/SVG/1.1/DTD/svg11.dtd">
<svg version="1.1" id="Capa_1" xmlns="http://www.w3.org/2000/svg" xmlns:xlink="http://www.w3.org/1999/xlink" x="0px" y="0px"
	 width="800px" height="480px" viewBox="0 0 800 480" enable-background="new 0 0 800 480" xml:space="preserve">
<path stroke="#000000" stroke-miterlimit="10" d="M379.442,181.656c0,103.342,0,103.342-71.472,103.342l0,0
	c-71.471,0-71.471,0-71.471-103.91l0,0c0-103.91,0-103.91,71.471-103.91l0,0C379.442,77.178,379.442,77.178,379.442,181.656
	L379.442,181.656z"/>
<path stroke="#000000" stroke-miterlimit="10" d="M563.002,181.656c0,103.342,0,103.342-71.471,103.342l0,0
	c-71.476,0-71.476,0-71.476-103.909l0,0c0-103.91,0-103.91,71.476-103.91l0,0C563.002,77.178,563.002,77.178,563.002,181.656
	L563.002,181.656z"/>
<path d="M398.441,345.952c0.123,0.016,0.166,0.063,0.202,0.116c0.058,0.085,0.119,0.17,0.237,0.24
	c0.175,0.104,0.419,0.142,0.67,0.172c0.403,0.047,0.798,0.026,1.185-0.043c0.269-0.048,0.444-0.144,0.544-0.273
	c0.031-0.04,0.061-0.079,0.087-0.119c0.028-0.044,0.083-0.075,0.169-0.093c0.008,0,0.016,0,0.023,0
	c0.138,0.007,0.191,0.051,0.213,0.113c0.016,0.27-0.168,0.454-0.611,0.599c-0.63,0.152-1.71,0.214-2.31,0.005
	c-0.397-0.139-0.516-0.237-0.623-0.495c0-0.018,0-0.035,0-0.054c0-0.023,0.005-0.047,0.008-0.07c0.006-0.053,0.062-0.083,0.16-0.098
	C398.411,345.952,398.426,345.952,398.441,345.952z"/>
</svg>
