<?xml version="1.0" encoding="utf-8"?>
<!-- Generator: Adobe Illustrator 16.0.0, SVG Export Plug-In . SVG Version: 6.00 Build 0)  -->
<!DOCTYPE svg PUBLIC "-//W3C//DTD SVG 1.1//EN" "http://www.w3.org/Graphics/SVG/1.1/DTD/svg11.dtd">
<svg version="1.1" id="Capa_1" xmlns="http://www.w3.org/2000/svg" xmlns:xlink="http://www.w3.org/1999/xlink" x="0px" y="0px"
	 width="800px" height="460px" viewBox="0 0 800 460" enable-background="new 0 0 800 460" xml:space="preserve">
<path d="M380.441,181.656c0,103.342,0,103.342-71.472,103.342l0,0c-71.471,0-71.471,0-71.471-103.91l0,0
	c0-103.91,0-103.91,71.471-103.91l0,0C380.441,77.178,380.441,77.178,380.441,181.656L380.441,181.656z"/>
<path d="M564.002,181.656c0,103.342,0,103.342-71.471,103.342l0,0c-71.475,0-71.475,0-71.475-103.909l0,0
	c0-103.91,0-103.91,71.475-103.91l0,0C564.002,77.178,564.002,77.178,564.002,181.656L564.002,181.656z"/>
<path d="M417.555,332.666c0,11.379-13.564,20.603-20.279,20.603c-6.713,0-19.748-8.917-19.748-20.295
	c0-11.377,13.034-20.908,19.748-20.908C403.99,312.065,417.555,321.288,417.555,332.666z"/>
</svg>
