<?xml version="1.0" encoding="utf-8"?>
<!-- Generator: Adobe Illustrator 16.0.0, SVG Export Plug-In . SVG Version: 6.00 Build 0)  -->
<!DOCTYPE svg PUBLIC "-//W3C//DTD SVG 1.1//EN" "http://www.w3.org/Graphics/SVG/1.1/DTD/svg11.dtd">
<svg version="1.1" id="Capa_1" xmlns="http://www.w3.org/2000/svg" xmlns:xlink="http://www.w3.org/1999/xlink" x="0px" y="0px"
	 width="800px" height="480px" viewBox="0 0 800 480" enable-background="new 0 0 800 480" xml:space="preserve">
<path stroke="#000000" stroke-miterlimit="10" d="M287.442,241.188c0,108.201,0,108.201-71.472,108.201l0,0
	c-71.471,0-71.471,0-71.471-108.796l0,0c0-108.796,0-108.796,71.471-108.796l0,0C287.442,131.796,287.442,131.796,287.442,241.188
	L287.442,241.188z"/>
<path stroke="#000000" stroke-miterlimit="10" d="M471.002,253.372c0,90.948,0,90.948-71.471,90.948l0,0
	c-71.472,0-71.472,0-71.472-91.447l0,0c0-91.447,0-91.447,71.472-91.447l0,0C471.002,161.426,471.002,161.426,471.002,253.372
	L471.002,253.372z"/>
<path d="M466.771,383.674c2.75,2.675,4.231,6.011,4.231,9.648c0,3.314-2.56,5.874-4.952,6.184
	c-1.333,0.174-11.868,0.192-16.336,0.192c-8.464,0-18.416-0.062-19.735-0.154c-2.499-0.176-5.196-2.604-5.196-6.222
	c0-3.542,1.405-6.798,4.021-9.437c0.031-0.042,0.069-0.082,0.113-0.116c0.003-0.003,0.006-0.004,0.008-0.006
	c0.803-0.794,1.715-1.529,2.734-2.199c4.195-2.756,9.961-4.276,16.234-4.276c6.275,0,12.04,1.521,16.236,4.276
	c0.953,0.627,1.813,1.312,2.578,2.047C466.729,383.632,466.75,383.65,466.771,383.674z"/>
</svg>
