<?xml version="1.0" encoding="utf-8"?>
<!-- Generator: Adobe Illustrator 16.0.0, SVG Export Plug-In . SVG Version: 6.00 Build 0)  -->
<!DOCTYPE svg PUBLIC "-//W3C//DTD SVG 1.1//EN" "http://www.w3.org/Graphics/SVG/1.1/DTD/svg11.dtd">
<svg version="1.1" id="Capa_1" xmlns="http://www.w3.org/2000/svg" xmlns:xlink="http://www.w3.org/1999/xlink" x="0px" y="0px"
	 width="800px" height="480px" viewBox="0 0 800 480" enable-background="new 0 0 800 480" xml:space="preserve">
<path stroke="#000000" stroke-miterlimit="10" d="M307.646,351.125L307.646,351.125c-71,0-71.309-15.292-71.309-15.292
	c0-10.73,13.838,6.834,70.505,6.667c54.48-0.16,68.944-17.833,68.907-5.5C375.75,337,379.646,351.125,307.646,351.125z"/>
<path stroke="#000000" stroke-miterlimit="10" d="M492.646,351.125L492.646,351.125c-71,0-71.309-15.292-71.309-15.292
	c0-10.73,13.838,6.834,70.505,6.667c54.48-0.16,68.944-17.833,68.907-5.5C560.75,337,564.646,351.125,492.646,351.125z"/>
<path d="M400,375.846c9.734,0,18.677,2.356,25.185,6.631c1.479,0.974,2.814,2.038,4.002,3.178c0.035,0.031,0.068,0.062,0.098,0.095
	c4.268,4.149,6.564,9.325,6.564,14.968c0,4.985-1.83,7.648-5.598,8.135c-0.441,0.059-0.92,0.088-1.428,0.088
	c-2.754,0-6.201-0.839-10.195-1.813c-1.154-0.28-2.346-0.57-3.58-0.855c-0.049-0.013-0.1-0.022-0.145-0.033
	c-4.166-0.956-9.164-1.939-14.559-1.979l-0.042-0.002c-0.025,0.002-0.051,0.002-0.077,0.002c-0.075-0.002-0.149-0.002-0.226-0.002
	c-5.407,0-10.523,0.993-14.385,1.864c-0.043,0.01-0.084,0.021-0.124,0.026c-1.426,0.323-2.794,0.656-4.118,0.979
	c-3.994,0.974-7.444,1.813-10.197,1.813c-0.289,0-0.573-0.011-0.839-0.029c-4.164-0.291-6.188-2.972-6.188-8.193
	c0-5.492,2.183-10.545,6.236-14.638c0.052-0.065,0.108-0.127,0.176-0.182c0.004-0.002,0.011-0.004,0.016-0.008
	c1.245-1.231,2.66-2.373,4.238-3.413C381.325,378.202,390.27,375.846,400,375.846"/>
</svg>
