<?xml version="1.0" encoding="utf-8"?>
<!-- Generator: Adobe Illustrator 16.0.0, SVG Export Plug-In . SVG Version: 6.00 Build 0)  -->
<!DOCTYPE svg PUBLIC "-//W3C//DTD SVG 1.1//EN" "http://www.w3.org/Graphics/SVG/1.1/DTD/svg11.dtd">
<svg version="1.1" id="Capa_1" xmlns="http://www.w3.org/2000/svg" xmlns:xlink="http://www.w3.org/1999/xlink" x="0px" y="0px"
	 width="800px" height="400px" viewBox="0 0 800 400" enable-background="new 0 0 800 400" xml:space="preserve">
<g>
	<path stroke="#000000" stroke-miterlimit="10" d="M383,210.064c0.231,111.085,0.231,111.085-75.131,111.934l0,0
		c-71.471,0-71.471,0-71.406-89.335c0.008-10.946-0.006-10.946,14.203-13.418c2.446-0.425,59.074-9.905,59.074-9.905l0,0
		c4-1.014,49.055-8.047,54.635-9.163C377.625,197.529,382.988,204.205,383,210.064z"/>
	<path stroke="#000000" stroke-miterlimit="10" d="M563.533,232.663C563,317.859,563,317.859,494.002,317.521l0,0
		c-71.473,0-71.473,0-71.504-107.162c-0.003-10.2,13.303-11.195,19.184-10.102l52.293,9.114l0,0c0,0,53.134,9.733,54.309,10.03
		C562.333,222.953,563.594,222.916,563.533,232.663z"/>
</g>
</svg>
