<?xml version="1.0" encoding="utf-8"?>
<!-- Generator: Adobe Illustrator 16.0.0, SVG Export Plug-In . SVG Version: 6.00 Build 0)  -->
<!DOCTYPE svg PUBLIC "-//W3C//DTD SVG 1.1//EN" "http://www.w3.org/Graphics/SVG/1.1/DTD/svg11.dtd">
<svg version="1.1" id="Capa_1" xmlns="http://www.w3.org/2000/svg" xmlns:xlink="http://www.w3.org/1999/xlink" x="0px" y="0px"
	 width="800px" height="480px" viewBox="0 0 800 480" enable-background="new 0 0 800 480" xml:space="preserve">
<path stroke="#000000" stroke-miterlimit="10" d="M287.442,241.188c0,108.201,0,108.201-71.472,108.201l0,0
	c-71.471,0-71.471,0-71.471-108.796l0,0c0-108.796,0-108.796,71.471-108.796l0,0C287.442,131.796,287.442,131.796,287.442,241.188
	L287.442,241.188z"/>
<path stroke="#000000" stroke-miterlimit="10" d="M471.002,253.372c0,90.948,0,90.948-71.471,90.948l0,0
	c-71.472,0-71.472,0-71.472-91.447l0,0c0-91.447,0-91.447,71.472-91.447l0,0C471.002,161.426,471.002,161.426,471.002,253.372
	L471.002,253.372z"/>
<path d="M450.721,387.771c0.412,0.401,0.634,0.9,0.634,1.449c0,0.494-0.38,0.875-0.742,0.926c-0.201,0.028-1.774,0.028-2.446,0.028
	c-1.269,0-2.761-0.008-2.958-0.021c-0.377-0.028-0.778-0.391-0.778-0.933c0-0.534,0.212-1.019,0.603-1.416
	c0.003-0.008,0.011-0.015,0.019-0.018l0,0c0.121-0.123,0.258-0.23,0.404-0.331c0.635-0.416,1.492-0.642,2.432-0.642
	c0.946,0,1.808,0.229,2.436,0.642c0.143,0.094,0.272,0.194,0.388,0.306C450.713,387.764,450.716,387.768,450.721,387.771z"/>
</svg>
