<?xml version="1.0" encoding="utf-8"?>
<!-- Generator: Adobe Illustrator 16.0.0, SVG Export Plug-In . SVG Version: 6.00 Build 0)  -->
<!DOCTYPE svg PUBLIC "-//W3C//DTD SVG 1.1//EN" "http://www.w3.org/Graphics/SVG/1.1/DTD/svg11.dtd">
<svg version="1.1" id="Capa_1" xmlns="http://www.w3.org/2000/svg" xmlns:xlink="http://www.w3.org/1999/xlink" x="0px" y="0px"
	 width="800px" height="480px" viewBox="0 0 800 480" enable-background="new 0 0 800 480" xml:space="preserve">
<path stroke="#000000" stroke-miterlimit="10" d="M563.471,180.023c0,4.271,0,4.271-71.472,4.271l0,0
	c-71.471,0-71.471,0-71.471-4.295l0,0c0-4.295,0-4.295,71.471-4.295l0,0C563.471,175.705,563.471,175.705,563.471,180.023
	L563.471,180.023z"/>
<path stroke="#000000" stroke-miterlimit="10" d="M379.471,180.023c0,4.271,0,4.271-71.472,4.271l0,0
	c-71.471,0-71.471,0-71.471-4.295l0,0c0-4.295,0-4.295,71.471-4.295l0,0C379.471,175.705,379.471,175.705,379.471,180.023
	L379.471,180.023z"/>
<path d="M354.169,323.399c3.607,0.447,4.883,1.866,5.933,3.409c1.699,2.505,3.484,4.982,6.977,7.071
	c5.131,3.07,12.307,4.166,19.696,5.035c11.859,1.394,23.471,0.773,34.831-1.257c7.915-1.415,13.058-4.215,16.008-8.045
	c0.89-1.157,1.762-2.319,2.531-3.494c0.843-1.29,2.437-2.206,4.982-2.72c0.222,0,0.438,0,0.66,0
	c4.062,0.207,5.643,1.486,6.268,3.327c0.471,7.93-4.926,13.352-17.951,17.581c-18.528,4.484-50.285,6.287-67.892,0.154
	c-11.667-4.064-15.175-6.976-18.296-14.536c0-0.527-0.001-1.055,0-1.582c0.01-0.692,0.154-1.381,0.235-2.068
	c0.186-1.556,1.799-2.448,4.699-2.873C353.29,323.399,353.73,323.399,354.169,323.399z"/>
</svg>
