<?xml version="1.0" encoding="utf-8"?>
<!-- Generator: Adobe Illustrator 16.0.0, SVG Export Plug-In . SVG Version: 6.00 Build 0)  -->
<!DOCTYPE svg PUBLIC "-//W3C//DTD SVG 1.1//EN" "http://www.w3.org/Graphics/SVG/1.1/DTD/svg11.dtd">
<svg version="1.1" id="Capa_1" xmlns="http://www.w3.org/2000/svg" xmlns:xlink="http://www.w3.org/1999/xlink" x="0px" y="0px"
	 width="800px" height="480px" viewBox="0 0 800 480" enable-background="new 0 0 800 480" xml:space="preserve">
<path d="M374.335,397c1.974-0.251,2.672-1.045,3.247-1.91c0.929-1.4,1.906-2.788,3.817-3.959c2.809-1.719,6.734-2.333,10.778-2.819
	c6.49-0.78,12.845-0.433,19.061,0.704c4.331,0.792,7.146,2.359,8.76,4.506c0.488,0.646,0.965,1.299,1.386,1.955
	c0.461,0.724,1.333,1.236,2.728,1.523c0.12,0,0.239,0,0.358,0c2.225-0.116,3.088-0.832,3.432-1.863
	c0.26-4.439-2.694-7.478-9.822-9.846c-10.139-2.511-27.517-3.521-37.15-0.085c-6.384,2.276-8.304,3.907-10.012,8.141
	c0,0.295-0.001,0.591,0,0.886c0.005,0.389,0.084,0.772,0.129,1.158c0.1,0.871,0.983,1.37,2.57,1.609
	C373.855,397,374.095,397,374.335,397z"/>
<path stroke="#000000" stroke-miterlimit="10" d="M381.442,297.656c0,62.511-10.526,66.349-71.472,66.342l0,0
	c-61.804,0-71.911,0-71.471-66.91l0,0c-0.5-29.59-0.5-29.59,27.515-37.135l64.937-18.027C381,228.831,381,228.831,381.442,297.656
	L381.442,297.656z"/>
<path stroke="#000000" stroke-miterlimit="10" d="M565,306c0.002,44.167-9.833,50.32-71.498,50.32l0,0
	c-58.668,0-71.442-2.153-71.502-59.91l0,0c0-67.243,0-67.243,50.049-54.484l64.938,18.027
	c28.016,10.881,28.016,10.881,28.016,37.024L565,306z"/>
</svg>
